# xmcd
# 
# Track frame offsets:
#     150
#     12025
#     32262
#     47630
#     62680
#     78310
#     94025
#     105982
#     119930
#     140780
#     155395
#     174877
#     193822
#     212867
#     227142
# 
# Disc length: 3127
# 
# Revision: 7
# Processed by: cddbd v1.5.2PL0 Copyright (c) Steve Scherf et al.
# Submitted via: BonkEnc v1.0.6
# 
DISCID=c20c350f
DTITLE=Steve Wariner - Two Teardrops
DYEAR=1999
DGENRE=Country
TTITLE0=Hands Of Time
TTITLE1=Two Teardrops
TTITLE2=You Be My Everything
TTITLE3=I'm Already Taken
TTITLE4=I've Been In That Movie
TTITLE5=If You Don't Know By Now
TTITLE6=Talk To Her Heart
TTITLE7=So Much
TTITLE8=I'll Always Have Denver
TTITLE9=That's Love For You
TTITLE10=Cry No More
TTITLE11=Since You Walked Away
TTITLE12=For The First Time
TTITLE13=Tattoos Of Life
TTITLE14=The Harry Shuffle
EXTD=YEAR: 1999
EXTT0=
EXTT1=
EXTT2=
EXTT3=
EXTT4=
EXTT5=
EXTT6=
EXTT7=
EXTT8=
EXTT9=
EXTT10=
EXTT11=
EXTT12=
EXTT13=
EXTT14=
PLAYORDER=
